# Blender v2.93.5 OBJ File: 'untitled.blend'
# www.blender.org
mtllib untitled.mtl
o Roundcube
v 0.346570 0.119173 -0.452612
v 0.037194 0.073302 -0.437687
v -0.705319 0.054622 -0.611423
v 0.453746 0.210829 -0.544927
v -0.841445 0.096381 -0.667626
v -0.501201 0.137652 -0.727376
v 0.518301 0.335114 -0.641788
v -0.906229 0.222395 -0.644553
v 0.339057 0.627155 -0.569150
v 0.299615 0.717173 -0.507393
v -0.562825 0.771930 -0.587223
v -0.753702 0.707259 -0.605888
v -0.920808 0.131990 0.195604
v -0.976684 0.174971 0.261710
v -1.050461 0.140955 -0.510643
v -0.913273 0.232088 0.543656
v -1.072524 0.272469 -0.474433
v -1.198248 0.261033 -0.210717
v -1.045699 0.272296 0.359799
v -0.974876 0.352949 0.498577
v -1.149395 0.401658 0.176023
v -1.110753 0.630553 0.036736
v -0.919358 0.764904 0.340126
v -0.730206 0.758965 0.613527
v -0.371899 0.036847 0.755289
v -0.257015 0.027705 0.754083
v -0.338302 0.092300 0.851686
v -0.126181 0.074162 0.867909
v 0.043014 0.084224 0.849108
v -0.507215 0.172343 0.826083
v -0.330637 0.161062 0.871403
v -0.397133 0.324087 0.851946
v -0.312774 0.621799 0.820322
v -0.073521 0.671226 0.801423
v 0.084250 0.714227 0.757206
v -0.605534 0.780731 0.685170
v -0.273032 0.846253 0.762997
v 0.070214 0.853153 0.724980
v 0.163420 0.893256 0.674439
v -0.122476 0.899227 0.698552
v -0.070725 0.933172 0.628884
v 0.281529 0.909919 0.597358
v 0.377948 0.054897 0.516332
v 0.499130 0.041437 0.244312
v 0.538755 0.038834 0.080678
v 0.638706 0.082200 0.205501
v 0.619011 0.142058 -0.300660
v 0.615271 0.187873 -0.418505
v 0.884339 0.292994 0.085184
v 0.580517 0.436576 0.594805
v 0.680387 0.349252 0.482411
v 0.599284 0.665501 0.496965
v 0.823298 0.558067 -0.185698
v 0.728401 0.724170 -0.067402
v 0.013645 0.021164 0.652409
v -0.368956 0.037830 0.656005
v -0.444185 0.042875 0.662913
v -0.626579 0.077417 0.679879
v -0.673139 0.069930 0.525215
v -0.418408 0.006119 0.434415
v 0.232789 -0.009815 0.078442
v -0.212001 -0.011802 0.104841
v -0.779677 0.056452 0.073980
v -0.716533 0.039196 -0.037759
v 0.014111 -0.004772 -0.136737
v 0.070485 0.041069 -0.304022
v -0.217318 0.047492 -0.369405
v -0.349933 0.868018 -0.501855
v -0.635335 0.873191 -0.473510
v -0.244698 0.949092 -0.400938
v -0.887257 0.808640 -0.373834
v 0.383432 0.837384 -0.335504
v -0.014605 1.099366 -0.169984
v -0.256202 1.044874 -0.203048
v 0.608836 0.815060 -0.149044
v -0.353191 0.976622 0.042225
v -0.090279 1.074330 -0.007616
v 0.409137 1.014061 0.126777
v 0.379793 1.036645 0.044452
v 0.210585 1.083539 0.212240
v 0.260294 1.053155 0.270367
v -0.469968 0.881938 0.402774
v -0.575885 0.851827 0.453568
v 0.231426 0.107651 -0.459894
v 0.780298 0.332265 -0.479328
v -1.032641 0.755455 -0.042714
v 0.834962 0.343325 -0.415989
v -0.316068 0.105786 -0.621678
v 0.675626 0.570577 0.459397
v -0.627742 0.265716 -0.827507
v -0.272844 0.939181 0.349937
v -0.624256 0.321471 0.773061
v 0.323930 0.493247 -0.674655
v -0.474742 0.626685 -0.681967
v -0.803914 0.548927 -0.656695
v -0.409295 0.031323 -0.337001
v -0.483229 0.972308 -0.189283
v -1.029093 0.229765 0.339610
v -0.858793 0.717275 -0.517021
v -1.218007 0.308688 -0.079136
v -1.088226 0.413921 -0.412245
v 0.811963 0.614439 0.001014
v 0.154772 0.119911 -0.506789
v -0.452966 0.971191 -0.065256
v -0.525316 0.051808 -0.535707
v -0.804864 0.835491 0.148113
v 0.845975 0.490290 0.151279
v 0.564107 0.776861 0.405374
v 0.017025 0.121820 0.877814
v -0.157535 0.978002 0.368541
v -0.147184 0.196282 0.888457
v -0.181425 0.009873 0.647211
v 0.594379 0.764977 -0.273798
v 0.337933 0.992113 0.351434
v -0.699142 0.600322 -0.680330
v -0.608105 0.710062 0.729238
v -0.175878 0.058165 -0.439559
v -1.144951 0.200648 -0.352702
v 0.459951 0.229883 0.698724
v -0.928537 0.459017 0.536772
v 0.455013 0.299346 0.716706
v 0.873335 0.304257 -0.360631
v -0.350531 1.008031 -0.034048
v -1.008615 0.729940 0.256673
v -0.631305 0.892961 0.070571
v 0.432689 0.689435 0.637772
v 0.584559 0.858620 -0.011300
v -0.952389 0.112848 -0.597860
v 0.299695 1.091639 0.099540
v 0.749817 0.646926 -0.209010
v -0.170733 0.104443 0.883804
v -0.711915 0.276548 -0.804687
v 0.255103 0.034228 0.504564
v 0.129470 0.128065 0.850601
v -0.152914 0.429657 0.849946
v -0.187636 0.605928 -0.683978
v -0.348772 0.804721 0.777945
v -0.142197 0.012557 -0.156785
v 0.358990 0.819527 0.614735
v -0.831117 0.797878 -0.482905
v -0.726627 0.869584 -0.423937
v -1.066030 0.653234 0.225190
v -1.029454 0.756085 0.089660
v -0.655316 0.089385 -0.695390
v -0.532013 0.074880 0.761714
v 0.025716 1.059288 0.230033
v -0.573498 0.403283 0.787113
v 0.176365 0.519790 0.786172
v -0.526713 0.759990 0.745813
v -0.931974 0.510319 -0.537727
v -0.017682 0.871028 0.730427
v -1.179715 0.221828 -0.192639
v 0.623690 0.064517 0.071901
v -1.117609 0.283441 0.203640
v -1.126390 0.500580 -0.293866
v -0.977958 0.722952 -0.340808
v 0.869358 0.498672 -0.122447
v -0.403737 0.067798 0.801478
v 0.541773 0.615458 -0.481039
v -0.365101 0.886097 0.541134
v -0.337347 0.357228 0.848484
v -0.691353 0.443190 -0.769124
v 0.252902 0.763420 0.695716
v -0.517880 0.815963 0.687709
v -0.221698 0.011259 -0.233860
v -0.783368 0.037368 -0.430550
v -1.083717 0.387384 0.319694
v 0.898689 0.258594 -0.016935
v 0.206704 1.136807 0.017360
v -0.968485 0.631030 0.423520
v 0.833648 0.375797 0.222952
v 0.051878 1.097459 0.104217
v 0.104938 0.197524 -0.642622
v -0.700229 0.146568 -0.782502
v -0.267313 0.983947 0.147722
v 0.671510 0.759983 0.104078
v 0.614912 0.786916 0.260182
v -0.426363 0.241740 -0.786856
v -0.492437 0.035215 0.614389
v 0.357638 0.897120 0.527910
v 0.107559 0.014904 0.505990
v -0.676188 0.848648 0.303272
v -0.660965 0.563022 -0.711442
v -0.433140 0.007252 0.299830
v 0.278785 0.003021 0.193082
v -0.507937 0.008568 0.151473
v -0.425767 -0.003739 -0.121589
v 0.027890 1.030370 0.342174
v 0.229831 0.907603 -0.339277
v -0.590706 0.027384 -0.414442
v 0.534305 0.113553 -0.263255
v -1.120375 0.242405 0.122154
v 0.700404 0.126070 -0.141170
v -0.788077 0.868026 -0.108456
v 0.515010 0.429946 -0.636089
v 0.500158 0.939079 -0.027919
v -0.960971 0.091485 -0.520652
v -0.125890 0.247840 -0.742092
v -0.202642 0.048757 0.824948
v -0.239463 0.282000 0.877866
v -0.577081 0.826909 0.577856
v -0.201879 0.454229 -0.750453
v -0.699058 0.042118 0.217740
v -0.051756 -0.018064 0.115567
v -0.087762 0.820846 0.764736
v 0.027947 0.010645 -0.234998
v -0.333242 0.872781 0.662932
v -0.851767 0.140389 0.475773
v 0.297386 0.009393 -0.052820
v -0.865599 0.397339 0.604823
v -0.131589 1.058100 -0.260389
v 0.127193 1.017367 -0.257947
v 0.921982 0.284396 -0.186524
v -0.383061 1.002708 -0.195414
v -1.124492 0.530636 0.177724
v 0.815379 0.592922 0.080457
v 0.655476 0.709158 0.329531
v -0.827835 0.144545 -0.714730
v -0.317519 0.013295 0.593299
v -0.806644 0.089591 0.315152
v -0.263141 0.507791 0.834212
v -0.413485 0.503346 -0.744851
v -0.877276 0.437126 -0.629401
v -0.222498 -0.013814 0.283558
v -0.486531 0.501427 0.804799
v -0.298610 0.000830 -0.009910
v -0.109846 0.035962 -0.349772
v -1.126480 0.171328 -0.353305
v 0.440106 0.104577 -0.370351
v 0.001345 0.938464 -0.376371
v -0.817953 0.080286 0.206266
v 0.780079 0.257228 -0.408992
v -0.987150 0.487767 -0.484310
v 0.916729 0.382639 -0.059169
v 0.665829 0.468584 -0.515661
v 0.752295 0.614171 0.277476
v -0.544802 0.893879 0.220744
v -0.708091 0.231099 0.725358
v 0.356521 0.365258 -0.702862
v -0.186906 0.589146 0.821798
v -0.332502 0.739892 0.806129
v 0.379849 0.063900 -0.241379
v 0.503841 0.049238 -0.088541
v 0.164074 0.834499 -0.434885
v 0.501026 0.158089 0.598737
v 0.807749 0.167524 -0.011625
v -1.039828 0.305240 -0.501642
v -1.201888 0.416682 -0.068022
v 0.906147 0.363240 -0.254361
v -0.949443 0.786930 0.186625
v -0.814131 0.052631 -0.547189
v 0.268544 0.178876 -0.564299
v 0.658924 0.710940 -0.266534
v 0.215773 0.055994 0.687452
v 0.034670 0.415264 -0.747414
v 0.177289 0.012592 0.368160
v -0.030017 0.357703 0.862469
v -0.352245 -0.009710 0.196239
v 0.764415 0.464005 0.345371
v 0.902889 0.293467 -0.271166
v -0.259970 -0.006622 -0.119051
v -0.811528 0.043322 -0.186870
v -0.044817 0.868144 -0.440395
v 0.266792 0.138564 0.789258
v -1.168982 0.322269 -0.278468
v 0.730951 0.183282 0.296169
v -0.147691 1.045388 0.091894
v 0.890838 0.272979 -0.273293
v 0.460338 0.951679 -0.143907
v 0.645432 0.307772 -0.567744
v 0.467835 0.460058 0.676647
v 0.329992 1.065688 -0.064224
v -0.716894 0.127844 -0.764519
v 0.099726 0.046776 0.751022
v -0.176721 0.330216 -0.774865
v -0.844315 0.268749 0.627489
v -0.231270 -0.004074 0.459428
v -0.769749 0.374808 -0.750257
v -0.769221 0.826239 -0.490409
v 0.333953 0.312161 0.786857
v -0.513572 0.024431 0.492118
v -0.256513 0.692130 -0.634849
v -0.677342 0.740089 -0.610694
v -0.542861 0.006024 -0.035552
v 0.220377 0.047653 -0.283423
v -0.425047 0.763090 -0.594605
v -0.606408 0.934308 -0.284509
v -0.949160 0.806019 -0.050856
v -0.890668 0.706247 0.470062
v -0.257574 0.160755 -0.694165
v -0.484864 0.891175 0.267177
v -0.360476 0.946765 0.253376
v 0.471385 0.870704 0.374483
v -0.361247 0.390724 -0.788606
v -0.055412 -0.008593 0.348575
v -0.181637 0.754232 0.788990
v -0.592362 0.932369 -0.044356
v -0.902859 0.064195 -0.416186
v 0.315627 0.571967 0.727137
v -0.083398 1.096940 -0.145366
v 0.076034 0.965586 0.601084
v -1.024751 0.119060 -0.274970
v -1.053066 0.171126 -0.518548
v 0.667497 0.118450 0.279011
v -1.208605 0.336690 -0.158428
v -1.048341 0.466933 0.368913
v 0.081253 1.131567 -0.069472
v -0.458549 0.099095 -0.664626
v 0.385077 0.299324 -0.671961
v 0.396355 0.743657 -0.437142
v -0.652851 0.329031 -0.820737
v 0.055264 0.282799 0.871360
v -0.885118 0.325080 -0.653111
v -0.664136 0.515015 0.731623
v 0.104875 0.553089 -0.682481
v -0.604306 0.016290 -0.204442
v 0.434097 0.105594 0.588829
v -0.291376 1.011826 -0.337080
v -0.769788 0.884742 -0.228175
v 0.591082 0.305117 0.593153
v -0.777953 0.114408 0.524245
v -0.249558 1.032780 -0.051008
v -0.820753 0.793487 0.381521
v 0.536624 0.902359 0.111158
v -0.770920 0.155370 0.641480
v -0.485118 0.260431 0.835630
v -0.729728 0.382173 0.706894
v -0.014641 0.720472 -0.581157
v -0.015754 0.601993 0.799617
v -0.139493 0.006827 -0.066548
v -0.702116 0.030526 -0.153452
v -0.975730 0.130500 0.007086
v -1.099530 0.203889 0.014144
v 0.194908 0.091537 0.789333
v -0.981574 0.225867 0.439534
v -0.576922 0.844346 -0.516912
v 0.801434 0.199358 -0.251377
v -0.930230 0.803300 -0.277145
v 0.339857 0.976238 -0.198405
v -1.111039 0.610917 -0.178773
v 0.281797 1.073237 -0.109505
v -0.079452 0.095312 -0.514145
v -0.931865 0.715332 -0.405512
v 0.563784 0.613201 0.567004
v 0.749898 0.688209 0.116611
v 0.232604 0.972329 0.523324
v 0.238509 0.195622 0.829253
v -0.969854 0.357085 -0.560082
v -0.016709 0.467250 0.837212
v -0.768808 0.581828 0.657153
v -0.445189 0.000533 0.169252
v 0.479023 0.033427 0.001309
v 0.070911 0.906169 0.690752
v -0.350380 0.011649 -0.163267
v -0.384780 0.995232 -0.321580
v -0.455760 0.953043 -0.387642
v -1.189188 0.431047 0.030689
v -1.088597 0.522217 -0.344138
v -0.303047 0.054663 -0.476409
v 0.769383 0.483211 -0.396341
v -0.055331 0.108921 -0.574714
v -0.266453 1.000889 0.080343
v -0.699532 0.791050 0.582397
v -0.566037 0.127779 0.787020
v -0.217447 0.935048 0.456161
v 0.133606 -0.008906 0.198937
v -0.432498 0.818651 0.738856
v -0.529270 0.018459 -0.144258
v -0.885337 0.075862 -0.074625
v -0.471614 0.008018 -0.272005
v 0.467993 0.853983 -0.266916
v 0.676197 0.239154 0.455824
v -0.830505 0.668364 0.576142
v 0.138069 1.131299 -0.097819
v -0.695295 0.025328 -0.407012
v -1.012478 0.755175 -0.174495
v -0.101365 0.043499 0.804691
v -0.529806 0.014864 0.299468
v 0.056296 -0.003784 -0.010674
vt 0.347074 0.330542
vt 0.366381 0.299691
vt 0.382768 0.305233
vt 0.344092 0.275274
vt 0.363609 0.181761
vt 0.392424 0.236298
vt 0.351836 0.241374
vt 0.326054 0.139251
vt 0.380211 0.132832
vt 0.356356 0.410352
vt 0.389056 0.390921
vt 0.388247 0.440050
vt 0.368698 0.360795
vt 0.400827 0.197643
vt 0.352703 0.064532
vt 0.349249 0.036774
vt 0.374811 0.063653
vt 0.416646 0.251786
vt 0.420369 0.186028
vt 0.395743 0.094252
vt 0.425970 0.127084
vt 0.405204 0.144693
vt 0.789689 0.500069
vt 0.855805 0.580464
vt 0.805838 0.546265
vt 0.780691 0.506263
vt 0.409695 0.348382
vt 0.429562 0.424122
vt 0.440861 0.288254
vt 0.433004 0.131632
vt 0.849544 0.535390
vt 0.449762 0.419849
vt 0.465902 0.154061
vt 0.451113 0.207770
vt 0.923951 0.585234
vt 0.890069 0.617923
vt 0.818821 0.045495
vt 0.752359 0.062660
vt 0.658169 0.036494
vt 0.465902 0.277441
vt 0.952787 0.587194
vt 0.942806 0.610426
vt 0.929502 0.541252
vt 0.607139 0.056090
vt 0.605516 0.028084
vt 0.663254 0.076878
vt 0.871425 0.072576
vt 0.820006 0.084896
vt 0.857875 0.476747
vt 0.906113 0.485247
vt 0.880308 0.515807
vt 0.879817 0.111147
vt 0.806713 0.132751
vt 0.948586 0.146167
vt 0.889475 0.155467
vt 0.966032 0.108606
vt 0.957267 0.162822
vt 0.953042 0.474493
vt 0.899885 0.440282
vt 0.875336 0.426821
vt 0.724236 0.103321
vt 0.648083 0.124694
vt 0.965499 0.205438
vt 0.940493 0.207438
vt 0.967270 0.541539
vt 0.995012 0.482021
vt 0.747041 0.166740
vt 0.652449 0.158447
vt 0.904576 0.211605
vt 0.865001 0.199729
vt 0.963023 0.395051
vt 0.997343 0.430696
vt 0.902462 0.242278
vt 0.834254 0.235736
vt 0.981166 0.255470
vt 0.960208 0.256142
vt 0.931060 0.359973
vt 0.304766 0.016121
vt 0.234115 0.092518
vt 0.209238 0.066272
vt 0.285302 0.049002
vt 0.131027 0.121470
vt 0.085006 0.110737
vt 0.138800 0.068316
vt 0.074945 0.133587
vt 0.040963 0.135639
vt 0.171807 0.020126
vt 0.203230 0.027356
vt 0.087628 0.066996
vt 0.114072 0.051281
vt 0.746858 0.454335
vt 0.754011 0.444800
vt 0.258207 0.000000
vt 0.720199 0.399036
vt 0.416661 0.526917
vt 0.457764 0.529622
vt 0.436254 0.495382
vt 0.408143 0.559285
vt 0.804542 0.464408
vt 0.717355 0.346228
vt 0.735457 0.392578
vt 0.548808 0.337983
vt 0.500339 0.418152
vt 0.557001 0.380382
vt 0.497639 0.444040
vt 0.413325 0.611843
vt 0.443835 0.572589
vt 0.743453 0.361534
vt 0.530350 0.456434
vt 0.563483 0.429015
vt 0.500388 0.488356
vt 0.465250 0.480411
vt 0.579595 0.404507
vt 0.822906 0.467057
vt 0.826809 0.416294
vt 0.604402 0.473615
vt 0.473035 0.560403
vt 0.531273 0.561954
vt 0.508010 0.515012
vt 0.472595 0.627205
vt 0.509086 0.615859
vt 0.582781 0.543121
vt 0.572711 0.517215
vt 0.842437 0.375308
vt 0.648483 0.490628
vt 0.647457 0.428359
vt 0.620379 0.514893
vt 0.537491 0.594294
vt 0.575161 0.577810
vt 0.913402 0.337854
vt 0.680445 0.468640
vt 0.612265 0.550984
vt 0.250755 0.713868
vt 0.214122 0.664561
vt 0.250489 0.684828
vt 0.289562 0.761016
vt 0.154610 0.643831
vt 0.124397 0.681163
vt 0.096795 0.627063
vt 0.668611 0.510936
vt 0.190335 0.698525
vt 0.217043 0.744205
vt 0.276654 0.791526
vt 0.245303 0.781914
vt 0.013781 0.294719
vt 0.000000 0.258916
vt 0.014503 0.241311
vt 0.021376 0.321077
vt 0.032014 0.279031
vt 0.001542 0.316127
vt 0.041510 0.373336
vt 0.010838 0.362473
vt 0.061897 0.402035
vt 0.032106 0.402457
vt 0.914729 0.667640
vt 0.945528 0.737605
vt 0.905856 0.692706
vt 0.924430 0.746915
vt 0.968109 0.800473
vt 0.953881 0.790294
vt 0.981332 0.853021
vt 0.964968 0.847752
vt 0.368636 0.555113
vt 0.371161 0.593588
vt 0.869412 0.627610
vt 0.881145 0.707321
vt 0.849446 0.665830
vt 0.928573 0.804967
vt 0.895465 0.784448
vt 0.818969 0.632512
vt 0.869257 0.739660
vt 0.828570 0.689267
vt 0.863878 0.760552
vt 0.889674 0.853824
vt 0.919832 0.873063
vt 0.962960 0.923756
vt 0.783614 0.667027
vt 0.806069 0.725372
vt 0.857107 0.822757
vt 0.823638 0.795478
vt 0.934210 0.966350
vt 0.784215 0.789517
vt 0.856689 0.867781
vt 0.804548 0.825771
vt 0.854997 0.934159
vt 0.727099 0.702421
vt 0.746090 0.793178
vt 0.787784 0.867749
vt 0.753054 0.841217
vt 0.719709 0.733184
vt 0.722967 0.793428
vt 0.376311 0.744331
vt 0.338419 0.783836
vt 0.322832 0.709520
vt 0.482012 0.690794
vt 0.519670 0.654794
vt 0.700185 0.706374
vt 0.311201 0.862735
vt 0.304726 0.839678
vt 0.320093 0.815803
vt 0.738949 0.876227
vt 0.785412 0.922395
vt 0.726623 0.903644
vt 0.848184 0.986142
vt 0.781117 0.983082
vt 0.308064 0.792212
vt 0.302207 0.754713
vt 0.298948 0.814893
vt 0.271334 0.943622
vt 0.267261 0.914335
vt 0.297852 0.881390
vt 0.739499 0.930016
vt 0.720120 0.937042
vt 0.731547 0.966263
vt 0.275840 0.859156
vt 0.243464 0.985811
vt 0.224964 0.956324
vt 0.251979 0.962504
vt 0.379410 0.848068
vt 0.371954 0.879583
vt 0.333039 0.885992
vt 0.440762 0.794261
vt 0.384451 0.807858
vt 0.248184 0.841640
vt 0.213660 0.872036
vt 0.244345 0.922058
vt 0.162091 0.925463
vt 0.703008 0.744802
vt 0.668455 0.746777
vt 0.680195 0.731040
vt 0.399002 0.872733
vt 0.456021 0.829816
vt 0.450136 0.865170
vt 0.301276 0.420147
vt 0.310502 0.460452
vt 0.264102 0.452421
vt 0.335829 0.434650
vt 0.182573 0.457435
vt 0.177558 0.502656
vt 0.111568 0.436687
vt 0.241392 0.447223
vt 0.226906 0.484368
vt 0.223051 0.463146
vt 0.321848 0.482414
vt 0.354736 0.482329
vt 0.091561 0.477851
vt 0.093927 0.456287
vt 0.250379 0.535578
vt 0.195240 0.491424
vt 0.281348 0.503830
vt 0.312900 0.532831
vt 0.058399 0.481969
vt 0.032416 0.425543
vt 0.173135 0.524674
vt 0.129380 0.524583
vt 0.363074 0.680480
vt 0.361404 0.700704
vt 0.289243 0.680107
vt 0.085724 0.521223
vt 0.253368 0.569547
vt 0.225129 0.573056
vt 0.357532 0.529468
vt 0.323595 0.562397
vt 0.405639 0.495860
vt 0.412962 0.696215
vt 0.413705 0.733163
vt 0.182842 0.581143
vt 0.658401 0.719670
vt 0.617187 0.734830
vt 0.614319 0.698766
vt 0.512531 0.036401
vt 0.487736 0.045304
vt 0.464662 0.037655
vt 0.384568 0.536266
vt 0.454491 0.706223
vt 0.538329 0.717273
vt 0.498108 0.739187
vt 0.459571 0.766844
vt 0.553570 0.751124
vt 0.583462 0.701201
vt 0.714735 0.763419
vt 0.560443 0.023860
vt 0.552422 0.074542
vt 0.419906 0.781000
vt 0.623626 0.771559
vt 0.510273 0.781043
vt 0.582763 0.794706
vt 0.564362 0.783401
vt 0.696967 0.804125
vt 0.632057 0.827119
vt 0.634430 0.795502
vt 0.546435 0.809451
vt 0.583060 0.123458
vt 0.524114 0.175622
vt 0.506896 0.089986
vt 0.640876 0.860569
vt 0.485522 0.809742
vt 0.589030 0.834886
vt 0.618395 0.170324
vt 0.495708 0.837223
vt 0.557886 0.880708
vt 0.540130 0.836862
vt 0.610889 0.210815
vt 0.544514 0.191022
vt 0.065486 0.347136
vt 0.110573 0.405105
vt 0.061863 0.296140
vt 0.029219 0.249422
vt 0.054407 0.247436
vt 0.022259 0.207325
vt 0.050521 0.228051
vt 0.040417 0.180618
vt 0.062182 0.214336
vt 0.106152 0.367135
vt 0.072626 0.259587
vt 0.093461 0.205965
vt 0.079350 0.163779
vt 0.143109 0.381150
vt 0.109467 0.278582
vt 0.142362 0.321073
vt 0.111141 0.229581
vt 0.189911 0.401475
vt 0.184941 0.365256
vt 0.145695 0.222239
vt 0.143434 0.196998
vt 0.160479 0.149709
vt 0.217336 0.387250
vt 0.201926 0.316512
vt 0.174567 0.241096
vt 0.201321 0.275290
vt 0.155116 0.276662
vt 0.182680 0.199296
vt 0.179463 0.216239
vt 0.251361 0.401092
vt 0.236336 0.341325
vt 0.229250 0.250395
vt 0.231061 0.186234
vt 0.196714 0.124625
vt 0.227920 0.139442
vt 0.160112 0.116238
vt 0.267422 0.328501
vt 0.247120 0.290326
vt 0.255866 0.215305
vt 0.258206 0.258133
vt 0.274165 0.166621
vt 0.268744 0.234010
vt 0.259949 0.187486
vt 0.265890 0.111618
vt 0.258919 0.141421
vt 0.292738 0.330403
vt 0.312269 0.340573
vt 0.309171 0.378984
vt 0.288691 0.266010
vt 0.325048 0.265439
vt 0.270401 0.288074
vt 0.294194 0.200308
vt 0.313069 0.215745
vt 0.356591 0.380714
vt 0.320974 0.293614
vt 0.330934 0.115380
vt 0.325382 0.083064
vt 0.329846 0.166620
vt 0.361586 0.105049
vt 0.741721 0.227580
vt 0.682335 0.206989
vt 0.794776 0.266329
vt 0.916742 0.261178
vt 0.855990 0.284267
vt 0.028321 0.646943
vt 0.041014 0.666871
vt 0.019522 0.683468
vt 0.984607 0.370137
vt 0.959335 0.333322
vt 0.654177 0.236425
vt 0.721895 0.252094
vt 0.802416 0.296059
vt 0.023649 0.739699
vt 0.063604 0.712688
vt 0.033363 0.765680
vt 0.092709 0.675928
vt 0.579597 0.221388
vt 0.748579 0.310449
vt 0.674475 0.283114
vt 0.064086 0.778098
vt 0.050184 0.810297
vt 0.068625 0.628542
vt 0.608401 0.270649
vt 0.024268 0.835527
vt 0.048294 0.859622
vt 0.035854 0.874078
vt 0.020380 0.787414
vt 0.567935 0.267502
vt 0.522946 0.225670
vt 0.705946 0.329391
vt 0.654477 0.338947
vt 0.615846 0.312932
vt 0.052387 0.907394
vt 0.040379 0.918886
vt 0.075173 0.752932
vt 0.103083 0.771317
vt 0.100373 0.800519
vt 0.121159 0.737625
vt 0.596405 0.317843
vt 0.083452 0.868754
vt 0.154503 0.736376
vt 0.121280 0.804939
vt 0.599039 0.881012
vt 0.551011 0.912526
vt 0.098587 0.913708
vt 0.063369 0.945939
vt 0.087447 0.824577
vt 0.113400 0.862180
vt 0.184092 0.770600
vt 0.122421 0.830405
vt 0.139962 0.835248
vt 0.499545 0.926877
vt 0.520475 0.885718
vt 0.492163 0.963461
vt 0.516548 0.944888
vt 0.500875 0.999173
vt 0.452489 0.969232
vt 0.133306 0.916627
vt 0.114025 0.961703
vt 0.185342 0.880866
vt 0.190976 0.789056
vt 0.444714 0.947118
vt 0.175040 0.820610
vt 0.192063 0.849721
vt 0.223082 0.804231
vt 0.436538 0.912411
vt 0.195716 0.990562
vt 0.126862 0.979115
vt 0.957915 0.048396
vt 0.962021 0.068832
vt 0.832367 0.584630
vt 0.879078 0.616564
vt 0.428059 0.461592
vt 0.820925 0.165745
vt 0.059004 0.086553
vt 0.159290 0.085033
vt 0.455932 0.469363
vt 0.821985 0.364703
vt 0.746282 0.318354
vt 0.833164 0.309367
vt 0.767794 0.397872
vt 0.556773 0.481249
vt 0.889715 0.280742
vt 0.934914 0.303680
vt 0.722017 0.469772
vt 0.008141 0.195725
vt 0.973601 0.883143
vt 0.997124 0.903453
vt 0.987133 0.930032
vt 0.318626 0.611534
vt 0.436463 0.649970
vt 0.813769 0.880477
vt 0.506258 0.695911
vt 0.715240 0.820827
vt 0.340106 0.841584
vt 0.380167 0.908649
vt 0.299798 0.661480
vt 0.301153 0.575009
vt 0.349164 0.559492
vt 0.113512 0.547949
vt 0.324787 0.568831
vt 0.035883 0.630429
vt 0.577811 0.934500
vt 0.538358 0.971546
vt 0.620587 0.360809
vn 0.1017 -0.9446 -0.3120
vn 0.0721 -0.9639 -0.2563
vn 0.1270 -0.8898 -0.4384
vn 0.0610 -0.9658 -0.2520
vn 0.0804 -0.9707 -0.2264
vn 0.1271 -0.8991 -0.4188
vn 0.0770 -0.9715 -0.2242
vn -0.0593 -0.9956 -0.0719
vn -0.0307 -0.9593 -0.2805
vn 0.1811 -0.8810 -0.4370
vn 0.1856 -0.8011 -0.5690
vn 0.2611 -0.7744 -0.5762
vn 0.1567 -0.8792 -0.4499
vn 0.1387 -0.8849 -0.4445
vn -0.3961 -0.9033 -0.1644
vn -0.7122 -0.5781 -0.3982
vn -0.5624 -0.6005 -0.5684
vn 0.1539 -0.7450 -0.6490
vn 0.1574 -0.7067 -0.6897
vn -0.3399 -0.7825 -0.5216
vn -0.1774 -0.7025 -0.6892
vn 0.0527 -0.8920 -0.4490
vn -0.7768 -0.0533 -0.6274
vn -0.5529 -0.2811 -0.7844
vn 0.1794 -0.7324 -0.6568
vn 0.2415 -0.5406 -0.8058
vn 0.1603 -0.4854 -0.8594
vn -0.1322 -0.4878 -0.8628
vn -0.6671 0.0600 -0.7425
vn 0.2339 -0.0413 -0.9714
vn -0.0208 -0.1530 -0.9880
vn 0.1505 -0.4348 -0.8878
vn -0.4452 0.0015 -0.8954
vn 0.1237 -0.0530 -0.9909
vn 0.1136 0.2399 -0.9641
vn -0.1647 0.2069 -0.9644
vn -0.5700 0.1988 -0.7972
vn 0.4206 0.3164 -0.8503
vn 0.4049 -0.2355 -0.8835
vn 0.2385 0.4362 -0.8676
vn 0.0746 0.2540 -0.9643
vn 0.0843 0.3204 -0.9435
vn -0.7051 0.2170 -0.6751
vn -0.6879 0.2484 -0.6819
vn -0.6789 0.1247 -0.7235
vn 0.0231 0.4207 -0.9069
vn 0.0779 0.4826 -0.8723
vn -0.1120 0.5000 -0.8587
vn -0.0102 0.4996 -0.8662
vn -0.2582 0.3742 -0.8907
vn -0.2373 0.4740 -0.8479
vn -0.5618 0.3526 -0.7483
vn -0.7202 0.3127 -0.6193
vn -0.7091 0.3350 -0.6204
vn 0.1390 0.4615 -0.8762
vn 0.2810 0.5968 -0.7515
vn -0.4035 0.4994 -0.7667
vn -0.1265 0.5784 -0.8059
vn 0.1370 0.6320 -0.7627
vn 0.2537 0.6546 -0.7121
vn -0.0177 0.6180 -0.7859
vn 0.0208 0.6064 -0.7949
vn -0.6789 0.4131 -0.6069
vn -0.0717 0.7377 -0.6712
vn 0.0439 0.6995 -0.7133
vn -0.5478 0.6630 -0.5101
vn -0.3327 0.7826 -0.5260
vn -0.7297 0.4337 -0.5286
vn -0.6824 -0.7234 -0.1045
vn -0.3489 -0.9328 0.0902
vn -0.4740 -0.8705 0.1324
vn -0.4415 -0.8952 0.0604
vn -0.3974 -0.9082 0.1310
vn -0.5261 -0.8093 0.2610
vn -0.5248 -0.8338 0.1711
vn -0.4459 -0.8644 0.2324
vn -0.5925 -0.5825 0.5564
vn -0.7146 -0.6624 0.2246
vn -0.5372 -0.8271 0.1651
vn -0.7360 -0.5366 0.4127
vn -0.6856 -0.6724 0.2787
vn -0.9135 -0.2404 -0.3280
vn -0.7480 -0.6621 0.0450
vn -0.7169 -0.4189 0.5572
vn -0.7959 -0.0334 0.6045
vn -0.6536 -0.1395 0.7439
vn -0.8007 0.1270 -0.5854
vn -0.9707 -0.2167 0.1039
vn -0.9613 -0.2011 -0.1881
vn -0.8765 -0.3384 0.3424
vn -0.5478 0.0790 0.8329
vn -0.6501 0.0693 0.7567
vn -0.9703 0.1367 -0.1996
vn -0.9361 0.0094 0.3516
vn -0.9642 0.1920 0.1830
vn -0.8927 -0.0132 0.4504
vn -0.8503 -0.3074 0.4270
vn -0.9631 0.2677 -0.0265
vn -0.7094 0.1816 -0.6810
vn -0.8047 0.2390 -0.5433
vn -0.8933 0.4449 0.0638
vn -0.7368 0.1476 0.6598
vn -0.7845 0.3345 0.5220
vn -0.8513 0.1638 0.4985
vn -0.5903 0.1747 0.7880
vn -0.6728 0.3453 0.6543
vn -0.7087 0.6336 0.3103
vn -0.8647 0.3982 0.3062
vn -0.7790 0.3920 -0.4893
vn -0.7063 0.7067 -0.0417
vn -0.8701 0.4554 -0.1885
vn -0.6825 0.7242 0.0978
vn -0.6804 0.5404 0.4949
vn -0.5159 0.7955 0.3178
vn -0.7429 0.5257 -0.4143
vn -0.7045 0.6923 -0.1559
vn -0.4196 0.8943 0.1551
vn -0.3147 0.9297 0.1915
vn -0.3658 0.8784 0.3076
vn -0.4285 0.9035 0.0067
vn -0.3427 0.9375 0.0608
vn -0.5754 0.8013 -0.1637
vn -0.2830 0.9515 0.1204
vn -0.2510 0.9562 0.1502
vn -0.2500 0.9465 0.2039
vn -0.2449 0.9566 0.1578
vn -0.0580 -0.8759 0.4788
vn -0.2017 -0.5460 0.8131
vn -0.2479 -0.8124 0.5277
vn 0.0672 -0.9406 0.3326
vn -0.0742 -0.9705 0.2292
vn 0.0385 -0.6846 0.7279
vn 0.1692 -0.9388 0.3000
vn 0.1911 -0.7224 0.6645
vn 0.2535 -0.9291 0.2691
vn 0.3388 -0.7595 0.5552
vn -0.4550 -0.4212 0.7845
vn -0.3451 -0.1606 0.9247
vn -0.1808 -0.0952 0.9789
vn -0.0613 -0.3133 0.9477
vn 0.1465 -0.2649 0.9531
vn -0.5567 -0.1544 0.8162
vn -0.3053 0.0441 0.9512
vn -0.4529 0.0500 0.8901
vn -0.0052 0.0331 0.9994
vn -0.0924 0.1182 0.9887
vn -0.1540 0.0985 0.9831
vn -0.3787 0.1142 0.9184
vn -0.0782 0.1269 0.9888
vn 0.0435 0.1877 0.9812
vn 0.1599 0.1184 0.9800
vn 0.3787 -0.1367 0.9153
vn -0.4681 0.1134 0.8764
vn -0.2811 0.1404 0.9493
vn 0.0114 0.1877 0.9821
vn -0.0264 0.1432 0.9893
vn 0.4129 0.0938 0.9059
vn -0.0635 0.1172 0.9911
vn 0.1143 0.2373 0.9647
vn 0.0470 0.1699 0.9843
vn 0.2470 0.2420 0.9383
vn -0.4404 0.2962 0.8475
vn -0.0967 0.2430 0.9652
vn 0.1340 0.1771 0.9750
vn 0.0791 0.2181 0.9727
vn -0.3379 0.4106 0.8469
vn -0.1803 0.4957 0.8496
vn 0.5347 0.1921 0.8229
vn 0.3679 0.2436 0.8973
vn -0.5430 0.6065 0.5807
vn -0.4224 0.6785 0.6010
vn -0.2709 0.7588 0.5923
vn 0.1176 0.3648 0.9236
vn 0.2290 0.2503 0.9407
vn 0.0970 0.5808 0.8082
vn 0.3401 0.3270 0.8817
vn -0.2927 0.8816 0.3702
vn -0.0766 0.8655 0.4950
vn -0.0903 0.7007 0.7077
vn 0.2259 0.3606 0.9049
vn 0.1044 0.7219 0.6841
vn 0.2936 0.5947 0.7483
vn -0.2203 0.9390 0.2641
vn 0.0296 0.9048 0.4247
vn 0.5289 0.5036 0.6831
vn 0.4243 0.6972 0.5778
vn 0.6992 0.4776 0.5320
vn 0.5236 0.3451 0.7789
vn -0.2345 0.9578 0.1662
vn -0.2618 0.9441 0.2002
vn -0.1757 0.9411 0.2887
vn -0.1626 0.9539 0.2521
vn 0.8334 -0.2756 -0.4790
vn 0.9303 0.2583 -0.2605
vn 0.9310 -0.2287 -0.2844
vn 0.5701 0.7000 0.4301
vn 0.6703 0.6418 0.3725
vn 0.6232 0.7249 0.2933
vn 0.1835 -0.9534 -0.2394
vn 0.2601 -0.9413 -0.2151
vn 0.2586 -0.9501 -0.1741
vn 0.2306 -0.9183 -0.3216
vn 0.2560 -0.9570 0.1362
vn 0.5477 -0.7895 0.2771
vn 0.2838 -0.9328 0.2221
vn 0.2111 -0.9724 -0.0997
vn 0.3769 -0.9259 -0.0259
vn 0.2413 -0.9703 -0.0166
vn 0.3105 -0.9080 -0.2813
vn 0.3353 -0.8281 -0.4491
vn 0.5978 -0.6148 0.5144
vn 0.4478 -0.8006 0.3981
vn 0.6048 -0.7958 0.0308
vn 0.4381 -0.8831 0.1681
vn 0.3811 -0.9065 -0.1817
vn 0.4947 -0.8329 -0.2480
vn 0.6069 -0.3407 0.7181
vn 0.4795 -0.5325 0.6975
vn 0.7410 -0.5709 0.3535
vn 0.7689 -0.3905 0.5063
vn 0.5806 -0.0110 0.8141
vn 0.7319 -0.1419 0.6664
vn 0.8842 -0.4475 0.1340
vn 0.9227 -0.2322 0.3077
vn 0.4857 -0.7227 -0.4917
vn 0.7089 -0.6517 -0.2697
vn 0.4812 -0.3843 -0.7879
vn 0.6916 0.1156 0.7129
vn 0.9086 -0.0304 0.4164
vn 0.9269 -0.3642 -0.0905
vn 0.9831 0.1613 0.0863
vn 0.6686 -0.1086 -0.7356
vn 0.7951 0.1815 -0.5787
vn 0.8196 -0.0448 0.5711
vn 0.8700 0.1222 0.4777
vn 0.7949 0.2652 0.5456
vn 0.9262 0.2605 0.2724
vn 0.5620 0.4507 -0.6936
vn 0.6451 0.2976 0.7037
vn 0.8968 0.4347 -0.0821
vn 0.8288 0.4418 0.3433
vn 0.8502 0.5263 0.0127
vn 0.8818 0.4490 0.1440
vn 0.6960 0.5016 -0.5137
vn 0.7309 0.6023 -0.3209
vn 0.8159 0.5206 -0.2516
vn 0.7594 0.6321 0.1540
vn 0.4462 0.6080 -0.6567
vn 0.6293 0.6372 -0.4449
vn 0.7381 0.5950 0.3180
vn 0.7357 0.6708 -0.0931
vn 0.3473 0.6827 -0.6428
vn 0.7139 0.6640 0.2222
vn 0.6972 0.7165 -0.0236
vn 0.7111 0.6931 0.1176
vn 0.3497 0.7015 -0.6210
vn 0.5341 0.6922 -0.4853
vn 0.0831 -0.9872 0.1362
vn 0.1386 -0.9827 0.1225
vn -0.0106 -0.9916 0.1287
vn -0.1973 -0.9528 0.2308
vn -0.1095 -0.9878 0.1104
vn -0.2901 -0.8055 0.5166
vn -0.0929 -0.9833 0.1563
vn -0.3973 -0.8440 0.3604
vn -0.0809 -0.9876 0.1343
vn 0.1014 -0.9900 0.0980
vn -0.1120 -0.9780 0.1761
vn -0.1775 -0.9785 0.1054
vn -0.3174 -0.9384 0.1361
vn 0.1158 -0.9887 0.0953
vn -0.0313 -0.9973 0.0660
vn 0.0321 -0.9977 0.0597
vn -0.1128 -0.9926 0.0453
vn 0.1243 -0.9889 0.0812
vn 0.0610 -0.9960 0.0657
vn -0.1026 -0.9936 0.0463
vn -0.1335 -0.9900 0.0453
vn -0.2442 -0.9673 0.0689
vn 0.0847 -0.9960 -0.0269
vn 0.0023 -0.9992 -0.0387
vn -0.0826 -0.9966 0.0009
vn -0.0312 -0.9985 -0.0440
vn -0.0265 -0.9991 0.0318
vn -0.1197 -0.9926 0.0199
vn -0.1179 -0.9930 -0.0090
vn 0.1209 -0.9831 -0.1373
vn 0.0095 -0.9979 -0.0633
vn -0.0158 -0.9998 -0.0063
vn -0.1219 -0.9925 -0.0064
vn -0.2586 -0.9644 0.0546
vn -0.1917 -0.9806 0.0417
vn -0.3790 -0.9188 0.1105
vn -0.0020 -0.9961 -0.0881
vn 0.0027 -0.9981 -0.0613
vn -0.0405 -0.9973 -0.0609
vn 0.0232 -0.9979 -0.0600
vn -0.0819 -0.9966 0.0006
vn 0.0102 -0.9769 -0.2136
vn -0.0563 -0.9969 -0.0539
vn -0.2313 -0.9716 0.0487
vn -0.1248 -0.9913 0.0421
vn 0.0578 -0.9752 -0.2134
vn 0.0893 -0.9478 -0.3061
vn 0.1364 -0.9562 -0.2588
vn 0.0996 -0.9761 -0.1931
vn 0.0192 -0.9849 -0.1720
vn 0.0213 -0.9933 -0.1129
vn 0.0379 -0.9928 -0.1136
vn 0.0779 -0.9827 -0.1678
vn 0.1236 -0.9225 -0.3658
vn -0.0038 -0.9792 -0.2030
vn -0.1565 -0.9861 -0.0558
vn -0.3135 -0.9494 -0.0191
vn 0.0240 -0.9900 -0.1389
vn -0.1856 -0.9653 -0.1837
vn 0.1257 0.6669 -0.7344
vn 0.2062 0.6822 -0.7015
vn 0.1042 0.7207 -0.6854
vn -0.1769 0.8320 -0.5258
vn -0.1754 0.8725 -0.4560
vn -0.3255 0.9035 -0.2787
vn -0.5851 0.7504 -0.3076
vn 0.2850 0.6955 -0.6596
vn 0.1355 0.6943 -0.7068
vn -0.0767 0.8849 -0.4594
vn -0.3029 0.9495 -0.0823
vn -0.2520 0.9460 -0.2038
vn -0.3626 0.9318 -0.0148
vn 0.4472 0.6900 -0.5692
vn -0.0097 0.8827 -0.4697
vn 0.2078 0.7591 -0.6170
vn -0.2990 0.9542 -0.0085
vn -0.2694 0.9615 -0.0537
vn 0.3677 0.7394 -0.5639
vn -0.2146 0.9746 -0.0639
vn -0.0039 0.9197 -0.3925
vn 0.5531 0.7566 -0.3487
vn 0.6404 0.7209 -0.2648
vn 0.1302 0.9355 -0.3285
vn 0.3548 0.8294 -0.4314
vn -0.1470 0.9890 -0.0117
vn -0.2923 0.9562 0.0124
vn -0.3072 0.9393 0.1524
vn -0.2885 0.9292 0.2310
vn -0.2917 0.9455 0.1448
vn 0.4928 0.8397 -0.2281
vn -0.2716 0.9530 0.1339
vn -0.2805 0.9472 0.1555
vn -0.2989 0.9392 0.1688
vn 0.6503 0.7566 -0.0678
vn -0.1891 0.9586 0.2130
vn 0.1734 0.9842 0.0350
vn -0.2786 0.9499 0.1418
vn -0.2845 0.9211 0.2657
vn -0.2277 0.9501 0.2130
vn -0.3321 0.9169 0.2212
vn -0.2844 0.9347 0.2132
vn 0.5985 0.7870 0.1497
vn 0.6824 0.7209 0.1207
vn 0.4314 0.8899 0.1479
vn 0.5924 0.8050 -0.0293
vn 0.0815 0.9572 0.2779
vn -0.1737 0.9530 0.2481
vn -0.2906 0.9312 0.2200
vn -0.2641 0.9463 0.1861
vn 0.3081 0.9039 0.2966
vn -0.2978 0.9481 0.1116
vn -0.2640 0.9431 0.2021
vn -0.2409 0.9593 0.1471
vn 0.4967 0.8139 0.3013
vn 0.2813 0.8733 0.3976
vn 0.0702 0.5796 -0.8119
vn -0.4728 -0.8693 0.1444
vn -0.8838 0.3120 -0.3485
vn -0.9124 0.1681 -0.3730
vn -0.9148 0.2698 0.3004
vn 0.3050 -0.3663 0.8791
vn 0.1606 0.2049 0.9655
usemtl Material.001
s 1
f 2/1/1 342/2/2 361/3/3
f 117/4/4 342/2/2 2/1/1
f 105/5/5 88/6/6 359/7/7
f 375/8/8 3/9/9 105/5/5
f 1/10/10 252/11/11 4/12/12
f 103/13/13 361/3/3 252/11/11
f 359/7/7 361/3/3 342/2/2
f 105/5/5 308/14/14 88/6/6
f 197/15/15 15/16/16 128/17/17
f 88/6/6 290/18/18 361/3/3
f 308/14/14 290/18/18 88/6/6
f 308/14/14 6/19/19 290/18/18
f 5/20/20 273/21/21 144/22/22
f 303/23/23 218/24/24 128/25/17
f 15/26/16 303/23/23 128/25/17
f 252/11/11 173/27/25 4/12/12
f 173/27/25 309/28/26 4/12/12
f 198/29/27 309/28/26 173/27/25
f 290/18/18 198/29/27 173/27/25
f 6/19/19 198/29/27 290/18/18
f 273/21/21 174/30/28 6/19/19
f 303/23/23 8/31/29 218/24/24
f 198/29/27 239/32/30 309/28/26
f 174/30/28 90/33/31 178/34/32
f 218/24/24 132/35/33 174/36/28
f 275/37/34 255/38/35 239/39/30
f 198/29/27 275/40/34 239/32/30
f 178/34/32 275/40/34 198/29/27
f 90/33/31 275/40/34 178/34/32
f 132/35/33 311/41/36 90/42/31
f 218/24/24 278/43/37 132/35/33
f 239/39/30 195/44/38 7/45/39
f 255/38/35 93/46/40 239/39/30
f 294/47/41 202/48/42 275/37/34
f 348/49/43 223/50/44 313/51/45
f 222/52/46 136/53/47 202/48/42
f 294/47/41 222/52/46 202/48/42
f 313/51/45 223/50/44 278/43/37
f 222/52/46 183/54/48 94/55/49
f 183/54/48 162/56/50 115/57/51
f 223/50/44 95/58/52 278/43/37
f 348/49/43 150/59/53 223/50/44
f 348/49/43 233/60/54 150/59/53
f 315/61/55 9/62/56 93/46/40
f 115/57/51 12/63/57 283/64/58
f 162/65/50 95/58/52 115/66/51
f 328/67/59 10/68/60 9/62/56
f 94/55/49 11/69/61 286/70/62
f 115/57/51 283/64/58 11/69/61
f 95/58/52 99/71/63 12/72/57
f 95/58/52 150/59/53 99/71/63
f 11/69/61 336/73/64 286/70/62
f 286/70/62 336/73/64 68/74/65
f 12/63/57 140/75/66 279/76/67
f 150/59/53 343/77/68 99/71/63
f 197/15/15 228/78/69 15/16/16
f 369/79/70 332/80/71 302/81/72
f 220/82/73 208/83/74 14/84/75
f 321/85/76 325/86/77 208/83/74
f 308/14/14 105/5/5 3/9/9 144/22/22
f 332/80/71 192/87/78 333/88/79
f 332/80/71 14/84/75 192/87/78
f 14/84/75 335/89/80 98/90/81
f 228/91/69 118/92/82 15/26/16
f 302/81/72 152/93/83 228/78/69
f 152/94/83 118/92/82 228/91/69
f 333/88/79 192/87/78 152/93/83
f 14/84/75 98/90/81 192/87/78
f 16/95/84 20/96/85 335/97/80
f 276/98/86 20/96/85 16/95/84
f 118/92/82 17/99/87 303/23/23
f 152/94/83 100/100/88 18/101/89
f 152/102/83 192/103/78 100/104/88
f 192/103/78 154/105/90 100/104/88
f 327/106/91 210/107/92 276/98/86
f 100/100/88 305/108/93 18/101/89
f 100/104/88 21/109/94 357/110/95
f 167/111/96 21/109/94 154/105/90
f 19/112/97 20/96/85 167/111/96
f 357/110/95 248/113/98 100/104/88
f 247/114/99 101/115/100 348/49/43
f 348/49/43 101/115/100 233/60/54
f 357/110/95 22/116/101 248/113/98
f 120/117/102 170/118/103 306/119/104
f 350/120/105 373/121/106 120/117/102
f 170/118/103 124/122/107 142/123/108
f 101/115/100 358/124/109 233/60/54
f 358/124/109 343/77/68 233/60/54
f 22/116/101 86/125/110 340/126/111
f 142/123/108 143/127/112 22/116/101
f 289/128/113 23/129/114 124/122/107
f 156/130/115 343/77/68 358/124/109
f 86/125/110 376/131/116 340/126/111
f 124/122/107 250/132/117 143/127/112
f 23/129/114 250/132/117 124/122/107
f 323/133/118 250/134/117 23/135/114
f 363/136/119 323/133/118 23/135/114
f 288/137/120 194/138/121 338/139/122
f 86/125/110 288/140/120 376/131/116
f 323/133/118 106/141/123 250/134/117
f 363/136/119 182/142/124 323/133/118
f 201/143/125 83/144/126 363/136/119
f 199/145/127 27/146/128 158/147/129
f 377/148/130 199/145/127 26/149/131
f 377/148/130 28/150/132 199/145/127
f 274/151/133 29/152/134 377/148/130
f 254/153/135 334/154/136 274/151/133
f 364/155/137 27/156/128 30/157/138
f 27/156/128 31/158/139 30/157/138
f 28/159/132 131/160/140 27/156/128
f 27/156/128 131/160/140 31/158/139
f 29/161/134 109/162/141 28/159/132
f 325/163/77 238/164/142 276/98/86
f 364/155/137 30/157/138 238/165/142
f 30/157/138 326/166/143 92/167/144
f 131/160/140 111/168/145 31/158/139
f 31/158/139 111/168/145 200/169/146
f 131/160/140 109/162/141 111/168/145
f 238/164/142 327/106/91 276/98/86
f 238/165/142 92/167/144 327/170/91
f 326/166/143 32/171/147 147/172/148
f 200/169/146 161/173/149 31/158/139
f 111/168/145 257/174/150 200/169/146
f 111/168/145 312/175/151 257/174/150
f 109/162/141 347/176/152 312/175/151
f 147/172/148 314/177/153 327/170/91
f 32/171/147 225/178/154 147/172/148
f 135/179/155 221/180/156 200/169/146
f 200/169/146 257/174/150 135/179/155
f 347/176/152 280/181/157 312/175/151
f 161/173/149 33/182/158 32/171/147
f 135/179/155 349/183/159 240/184/160
f 148/185/161 349/183/159 312/175/151
f 225/178/154 116/186/162 314/177/153
f 33/182/158 241/187/163 225/178/154
f 240/184/160 34/188/164 296/189/165
f 241/187/163 149/190/166 116/186/162
f 241/187/163 137/191/167 149/190/166
f 240/184/160 241/187/163 33/182/158
f 271/192/168 299/193/169 280/194/157
f 116/195/162 373/121/106 350/120/105
f 116/195/162 24/196/170 373/121/106
f 149/190/166 36/197/171 116/186/162
f 137/198/167 367/199/172 149/200/166
f 296/189/165 205/201/173 241/187/163
f 34/188/164 205/201/173 296/189/165
f 35/202/174 151/203/175 205/201/173
f 299/204/169 163/205/176 35/202/174
f 36/206/171 363/136/119 24/207/170
f 367/199/172 164/208/177 36/206/171
f 151/209/175 40/210/178 37/211/179
f 38/212/180 353/213/181 151/203/175
f 39/214/182 353/213/181 38/212/180
f 367/199/172 207/215/183 164/208/177
f 39/216/182 301/217/184 353/218/181
f 139/219/185 42/220/186 39/221/182
f 52/222/187 139/219/185 126/223/188
f 164/208/177 201/143/125 363/136/119
f 207/215/183 160/224/189 164/208/177
f 207/215/183 365/225/190 160/224/189
f 41/226/191 365/225/190 207/215/183
f 301/217/184 188/227/192 41/226/191
f 122/228/193 249/229/194 260/230/195
f 52/222/187 180/231/196 139/219/185
f 108/232/197 293/233/198 180/231/196
f 242/234/199 191/235/200 243/236/201
f 242/234/199 229/237/202 191/235/200
f 44/238/203 304/239/204 43/240/205
f 352/241/206 153/242/207 45/243/208
f 191/235/200 229/237/202 47/244/209
f 229/237/202 4/12/12 48/245/210
f 304/239/204 245/246/211 317/247/212
f 246/248/213 304/239/204 46/249/214
f 193/250/215 246/248/213 153/242/207
f 193/250/215 47/244/209 337/251/216
f 245/246/211 119/252/217 264/253/218
f 266/254/219 372/255/220 245/246/211
f 119/256/217 121/257/221 347/258/152
f 372/255/220 320/259/222 119/252/217
f 168/260/223 49/261/224 266/254/219
f 337/251/216 232/262/225 268/263/226
f 48/245/210 270/264/227 232/262/225
f 320/265/222 50/266/228 121/257/221
f 49/261/224 171/267/229 372/255/220
f 213/268/230 234/269/231 168/270/223
f 249/229/194 213/268/230 260/230/195
f 85/271/232 87/272/233 122/273/193
f 270/264/227 85/274/232 232/262/225
f 51/275/234 50/266/228 320/265/222
f 171/276/229 259/277/235 51/275/234
f 259/277/235 89/278/236 51/275/234
f 234/269/231 107/279/237 49/280/224
f 87/281/233 249/229/194 122/228/193
f 7/45/39 195/44/38 270/282/227
f 195/44/38 235/283/238 85/271/232
f 50/266/228 344/284/239 271/192/168
f 171/276/229 107/279/237 259/277/235
f 249/229/194 157/285/240 234/269/231
f 344/284/239 126/223/188 271/192/168
f 107/279/237 236/286/241 259/277/235
f 157/285/240 102/287/242 216/288/243
f 360/289/244 130/290/245 53/291/246
f 344/284/239 52/222/187 126/223/188
f 216/288/243 345/292/247 236/286/241
f 102/287/242 345/292/247 216/288/243
f 159/293/248 253/294/249 360/295/244
f 360/289/244 253/296/249 130/290/245
f 235/283/238 159/293/248 360/295/244
f 345/292/247 217/297/250 236/286/241
f 53/291/246 54/298/251 102/287/242
f 9/62/56 310/299/252 159/293/248
f 9/62/56 10/68/60 310/299/252
f 177/300/253 293/233/198 108/232/197
f 54/298/251 127/301/254 176/302/255
f 310/299/252 72/303/256 113/304/257
f 254/153/135 55/305/258 133/306/259
f 274/151/133 55/305/258 254/153/135
f 26/149/131 112/307/260 377/148/130
f 25/308/261 56/309/262 26/149/131
f 145/310/263 57/311/264 158/147/129
f 58/312/265 179/313/266 145/310/263
f 55/305/258 181/314/267 133/306/259
f 55/305/258 112/307/260 181/314/267
f 56/309/262 219/315/268 112/307/260
f 179/313/266 281/316/269 57/311/264
f 321/85/76 59/317/270 58/312/265
f 133/306/259 181/314/267 256/318/271
f 112/307/260 277/319/272 295/320/273
f 112/307/260 219/315/268 277/319/272
f 281/316/269 60/321/274 219/315/268
f 321/85/76 220/82/73 59/317/270
f 133/306/259 185/322/275 44/238/203
f 181/314/267 295/320/273 366/323/276
f 219/315/268 60/321/274 277/319/272
f 281/316/269 184/324/277 60/321/274
f 281/316/269 378/325/278 184/324/277
f 203/326/279 378/325/278 281/316/269
f 185/322/275 61/327/280 45/243/208
f 366/323/276 204/328/281 61/327/280
f 258/329/282 62/330/283 224/331/284
f 186/332/285 351/333/286 184/324/277
f 45/243/208 61/327/280 352/241/206
f 61/327/280 209/334/287 352/241/206
f 61/327/280 379/335/288 209/334/287
f 258/329/282 226/336/289 62/330/283
f 351/333/286 226/336/289 258/329/282
f 203/326/279 284/337/290 186/332/285
f 63/338/291 64/339/292 203/326/279
f 332/80/71 369/79/70 231/340/293
f 243/236/201 209/334/287 242/234/199
f 379/335/288 65/341/294 209/334/287
f 226/336/289 330/342/295 204/328/281
f 187/343/296 261/344/297 226/336/289
f 186/332/285 187/343/296 226/336/289
f 64/339/292 316/345/298 284/337/290
f 330/342/295 65/341/294 379/335/288
f 226/336/289 261/344/297 330/342/295
f 187/343/296 354/346/299 261/344/297
f 316/345/298 368/347/300 284/337/290
f 262/348/301 331/349/302 64/339/292
f 369/79/70 262/348/301 64/339/292
f 206/350/303 66/351/304 285/352/305
f 165/353/306 67/354/307 138/355/308
f 370/356/309 96/357/310 354/346/299
f 368/347/300 370/356/309 187/343/296
f 285/352/305 84/358/311 242/234/199
f 66/351/304 2/1/1 285/352/305
f 67/354/307 227/359/312 206/350/303
f 96/357/310 67/354/307 165/353/306
f 166/360/313 375/8/8 331/349/302
f 262/348/301 298/361/314 166/360/313
f 84/358/311 1/10/10 229/237/202
f 2/1/1 84/358/311 285/352/305
f 67/354/307 117/4/4 227/359/312
f 375/8/8 105/5/5 190/362/315
f 298/361/314 197/15/15 251/363/316
f 298/361/314 251/363/316 166/360/313
f 328/67/59 263/364/317 244/365/318
f 68/74/65 70/366/319 263/364/317
f 336/73/64 69/367/320 356/368/321
f 279/369/67 141/370/322 69/371/320
f 99/71/63 343/77/68 140/372/66
f 343/77/68 71/373/323 140/372/66
f 244/365/318 189/374/324 72/303/256
f 263/364/317 230/375/325 244/365/318
f 244/365/318 230/375/325 189/374/324
f 263/364/317 70/366/319 230/375/325
f 70/366/319 318/376/326 230/375/325
f 69/371/320 141/370/322 356/377/321
f 141/370/322 287/378/327 355/379/328
f 141/370/322 319/380/329 287/378/327
f 72/303/256 371/381/330 113/304/257
f 72/303/256 189/374/324 371/381/330
f 230/375/325 211/382/331 212/383/332
f 355/379/328 214/384/333 74/385/334
f 71/386/323 338/139/122 319/380/329
f 189/374/324 212/383/332 339/387/335
f 211/388/331 300/389/336 73/390/337
f 318/391/326 74/385/334 300/389/336
f 371/381/330 269/392/338 75/393/339
f 212/383/332 73/394/337 374/395/340
f 212/383/332 374/395/340 341/396/341
f 73/390/337 300/389/336 307/397/342
f 73/390/337 307/397/342 374/398/340
f 97/399/343 104/400/344 123/401/345
f 287/378/327 297/402/346 97/399/343
f 97/399/343 297/402/346 104/400/344
f 341/396/341 374/395/340 272/403/347
f 300/389/336 77/404/348 307/397/342
f 104/400/344 125/405/349 76/406/350
f 194/138/121 106/141/123 125/405/349
f 75/407/339 196/408/351 127/301/254
f 307/397/342 172/409/352 169/410/353
f 322/411/354 76/406/350 267/412/355
f 125/405/349 237/413/356 362/414/357
f 77/404/348 267/412/355 172/409/352
f 362/414/357 237/413/356 175/415/358
f 78/416/359 324/417/360 196/408/351
f 129/418/361 78/416/359 79/419/362
f 169/420/353 80/421/363 129/418/361
f 169/410/353 146/422/364 80/423/363
f 267/412/355 175/415/358 172/409/352
f 175/415/358 110/424/365 172/409/352
f 237/413/356 182/142/124 291/425/366
f 78/416/359 293/233/198 324/417/360
f 129/418/361 81/426/367 78/416/359
f 172/409/352 110/424/365 146/422/364
f 110/424/365 188/227/192 146/422/364
f 292/427/368 91/428/369 175/415/358
f 291/425/366 82/429/370 292/427/368
f 291/425/366 182/142/124 82/429/370
f 81/426/367 114/430/371 78/416/359
f 188/227/192 301/217/184 80/423/363
f 146/422/364 188/227/192 80/423/363
f 82/429/370 365/225/190 91/428/369
f 114/430/371 180/231/196 293/233/198
f 301/217/184 346/431/372 81/432/367
f 1/10/10 84/358/311 103/13/13
f 103/13/13 2/1/1 361/3/3
f 117/4/4 359/7/7 342/2/2
f 166/360/313 251/363/316 3/9/9
f 1/10/10 103/13/13 252/11/11
f 359/7/7 88/6/6 361/3/3
f 5/20/20 251/363/316 197/15/15 128/17/17
f 3/9/9 5/20/20 144/22/22
f 251/363/316 5/20/20 3/9/9
f 294/47/41 275/37/34 90/433/31 311/434/36
f 252/11/11 361/3/3 173/27/25
f 361/3/3 290/18/18 173/27/25
f 308/14/14 144/22/22 6/19/19
f 144/22/22 273/21/21 6/19/19
f 5/435/20 218/24/24 273/436/21
f 5/435/20 128/25/17 218/24/24
f 6/19/19 174/30/28 178/34/32
f 273/436/21 218/24/24 174/36/28
f 6/19/19 178/34/32 198/29/27
f 174/36/28 132/35/33 90/42/31
f 309/28/26 239/32/30 7/437/39
f 278/43/37 218/24/24 8/31/29 313/51/45
f 247/114/99 8/31/29 303/23/23 17/99/87
f 8/31/29 247/114/99 313/51/45
f 162/65/50 311/41/36 132/35/33 278/43/37
f 239/39/30 93/46/40 195/44/38
f 275/37/34 202/48/42 255/38/35
f 222/52/46 294/47/41 311/434/36 162/56/50
f 247/114/99 348/49/43 313/51/45
f 255/38/35 202/48/42 93/46/40
f 202/48/42 315/61/55 93/46/40
f 202/48/42 136/53/47 315/61/55
f 69/367/320 336/73/64 283/64/58 279/76/67
f 222/52/46 94/55/49 136/53/47
f 162/56/50 183/54/48 222/52/46
f 162/65/50 278/43/37 95/58/52
f 223/50/44 150/59/53 95/58/52
f 315/61/55 328/67/59 9/62/56
f 315/61/55 136/53/47 328/67/59
f 136/53/47 282/438/373 328/67/59
f 136/53/47 94/55/49 282/438/373
f 94/55/49 183/54/48 115/57/51
f 115/66/51 95/58/52 12/72/57
f 328/67/59 282/438/373 286/70/62
f 282/438/373 94/55/49 286/70/62
f 94/55/49 115/57/51 11/69/61
f 150/59/53 233/60/54 343/77/68
f 328/67/59 286/70/62 68/74/65
f 328/67/59 68/74/65 263/364/317
f 11/69/61 283/64/58 336/73/64
f 283/64/58 12/63/57 279/76/67
f 16/439/84 335/89/80 208/83/74 325/86/77
f 12/72/57 99/71/63 140/372/66
f 197/15/15 298/361/314 302/81/72
f 197/15/15 302/81/72 228/78/69
f 302/81/72 332/80/71 333/88/79
f 332/80/71 13/440/374 14/84/75
f 13/440/374 220/82/73 14/84/75
f 14/84/75 208/83/74 335/89/80
f 19/112/97 154/105/90 192/103/78 98/441/81
f 325/163/77 276/98/86 16/95/84
f 15/26/16 118/92/82 303/23/23
f 302/81/72 333/88/79 152/93/83
f 155/442/375 305/108/93 248/443/98 340/444/111
f 98/441/81 335/97/80 19/112/97
f 276/98/86 210/107/92 20/96/85
f 118/92/82 265/445/376 17/99/87
f 118/92/82 18/101/89 265/445/376
f 152/94/83 18/101/89 118/92/82
f 335/97/80 20/96/85 19/112/97
f 18/101/89 305/108/93 265/445/376
f 100/104/88 154/105/90 21/109/94
f 154/105/90 19/112/97 167/111/96
f 20/96/85 306/119/104 167/111/96
f 20/96/85 120/117/102 306/119/104
f 210/107/92 120/117/102 20/96/85
f 17/99/87 101/115/100 247/114/99
f 265/445/376 101/115/100 17/99/87
f 265/445/376 305/108/93 101/115/100
f 100/100/88 248/443/98 305/108/93
f 21/109/94 215/446/377 357/110/95
f 167/111/96 306/119/104 21/109/94
f 21/109/94 306/119/104 215/446/377
f 210/107/92 350/120/105 120/117/102
f 101/115/100 305/108/93 155/442/375
f 248/113/98 22/116/101 340/126/111
f 306/119/104 142/123/108 215/446/377
f 306/119/104 170/118/103 142/123/108
f 120/117/102 373/121/106 170/118/103
f 155/442/375 358/124/109 101/115/100
f 22/116/101 357/110/95 215/446/377 142/123/108
f 156/130/115 358/124/109 155/442/375 340/444/111
f 170/118/103 373/121/106 289/128/113
f 71/373/323 156/130/115 376/447/116 338/448/122
f 22/116/101 143/127/112 86/125/110
f 142/123/108 124/122/107 143/127/112
f 170/118/103 289/128/113 124/122/107
f 289/128/113 24/196/170 23/129/114
f 373/121/106 24/196/170 289/128/113
f 340/444/111 376/447/116 156/130/115
f 143/127/112 288/140/120 86/125/110
f 24/207/170 363/136/119 23/135/114
f 194/138/121 288/137/120 250/134/117 106/141/123
f 376/131/116 288/140/120 338/449/122
f 143/127/112 250/132/117 288/140/120
f 325/86/77 58/312/265 145/310/263 364/450/137
f 363/136/119 83/144/126 182/142/124
f 158/147/129 25/308/261 26/149/131 199/145/127
f 158/147/129 364/450/137 145/310/263
f 158/147/129 27/146/128 364/450/137
f 134/451/378 29/161/134 334/452/136 264/453/218
f 199/145/127 28/150/132 27/146/128
f 377/148/130 29/152/134 28/150/132
f 274/151/133 334/154/136 29/152/134
f 325/163/77 364/454/137 238/164/142
f 131/160/140 28/159/132 109/162/141
f 29/161/134 134/451/378 109/162/141
f 32/171/147 326/166/143 30/157/138 31/158/139
f 238/165/142 30/157/138 92/167/144
f 46/249/214 44/238/203 45/243/208 153/242/207
f 111/168/145 109/162/141 312/175/151
f 134/451/378 347/176/152 109/162/141
f 264/453/218 347/176/152 134/451/378
f 92/167/144 326/166/143 147/172/148
f 31/158/139 161/173/149 32/171/147
f 92/167/144 147/172/148 327/170/91
f 161/173/149 200/169/146 221/180/156
f 280/181/157 148/185/161 312/175/151
f 347/258/152 121/257/221 280/194/157
f 327/106/91 314/455/153 210/107/92
f 314/455/153 350/120/105 210/107/92
f 147/172/148 225/178/154 314/177/153
f 32/171/147 33/182/158 225/178/154
f 161/173/149 221/180/156 33/182/158
f 221/180/156 135/179/155 240/184/160
f 135/179/155 257/174/150 349/183/159
f 257/174/150 312/175/151 349/183/159
f 225/178/154 241/187/163 116/186/162
f 221/180/156 240/184/160 33/182/158
f 349/183/159 329/456/379 240/184/160
f 240/184/160 329/456/379 34/188/164
f 329/456/379 349/183/159 148/185/161
f 148/185/161 280/181/157 299/204/169
f 314/455/153 116/195/162 350/120/105
f 240/184/160 296/189/165 241/187/163
f 34/188/164 35/202/174 205/201/173
f 329/456/379 148/185/161 35/202/174
f 34/188/164 329/456/379 35/202/174
f 35/202/174 148/185/161 299/204/169
f 116/195/162 36/457/171 24/196/170
f 149/200/166 367/199/172 36/206/171
f 137/198/167 37/211/179 367/199/172
f 241/187/163 37/458/179 137/191/167
f 241/187/163 205/201/173 37/458/179
f 205/201/173 151/203/175 37/458/179
f 35/202/174 38/212/180 151/203/175
f 35/202/174 39/214/182 38/212/180
f 35/202/174 163/205/176 39/214/182
f 299/193/169 126/223/188 163/459/176
f 271/192/168 126/223/188 299/193/169
f 36/206/171 164/208/177 363/136/119
f 37/211/179 207/215/183 367/199/172
f 37/211/179 40/210/178 207/215/183
f 151/209/175 301/217/184 40/210/178
f 151/209/175 353/218/181 301/217/184
f 163/459/176 139/219/185 39/221/182
f 163/459/176 126/223/188 139/219/185
f 40/210/178 41/226/191 207/215/183
f 40/210/178 301/217/184 41/226/191
f 39/221/182 42/220/186 346/460/372
f 39/216/182 346/431/372 301/217/184
f 164/208/177 160/224/189 201/143/125
f 42/220/186 180/231/196 346/460/372
f 42/220/186 139/219/185 180/231/196
f 133/306/259 43/240/205 254/153/135
f 133/306/259 44/238/203 43/240/205
f 185/322/275 45/243/208 44/238/203
f 209/334/287 243/236/201 352/241/206
f 243/236/201 193/250/215 352/241/206
f 243/236/201 191/235/200 193/250/215
f 254/153/135 317/247/212 334/154/136
f 254/153/135 43/240/205 317/247/212
f 43/240/205 304/239/204 317/247/212
f 44/238/203 46/249/214 304/239/204
f 264/253/218 334/154/136 317/247/212 245/246/211
f 352/241/206 193/250/215 153/242/207
f 191/235/200 47/244/209 193/250/215
f 47/244/209 229/237/202 48/245/210
f 229/237/202 1/10/10 4/12/12
f 266/254/219 304/239/204 246/248/213 168/260/223
f 153/242/207 246/248/213 46/249/214
f 264/461/218 119/256/217 347/258/152
f 245/246/211 372/255/220 119/252/217
f 304/239/204 266/254/219 245/246/211
f 213/462/230 246/248/213 337/251/216 268/263/226
f 193/250/215 337/251/216 246/248/213
f 337/251/216 47/244/209 232/262/225
f 47/244/209 48/245/210 232/262/225
f 48/245/210 4/12/12 270/264/227
f 270/264/227 4/12/12 309/28/26
f 119/256/217 320/265/222 121/257/221
f 266/254/219 49/261/224 372/255/220
f 246/248/213 213/462/230 168/260/223
f 360/295/244 87/272/233 85/271/232 235/283/238
f 268/263/226 232/262/225 122/463/193
f 309/28/26 7/437/39 270/264/227
f 121/257/221 50/266/228 271/192/168
f 121/257/221 271/192/168 280/194/157
f 372/255/220 51/464/234 320/259/222
f 372/255/220 171/267/229 51/464/234
f 168/270/223 234/269/231 49/280/224
f 268/263/226 122/463/193 260/465/195
f 122/463/193 232/262/225 85/274/232
f 51/275/234 89/278/236 50/266/228
f 49/280/224 107/279/237 171/276/229
f 213/268/230 249/229/194 234/269/231
f 87/281/233 360/289/244 249/229/194
f 270/282/227 195/44/38 85/271/232
f 50/266/228 89/278/236 344/284/239
f 234/269/231 216/288/243 107/279/237
f 249/229/194 360/289/244 53/291/246
f 176/302/255 345/292/247 102/287/242 54/298/251
f 89/278/236 52/222/187 344/284/239
f 259/277/235 236/286/241 89/278/236
f 107/279/237 216/288/243 236/286/241
f 234/269/231 157/285/240 216/288/243
f 249/229/194 53/291/246 157/285/240
f 195/44/38 159/293/248 235/283/238
f 195/44/38 93/46/40 159/293/248
f 89/278/236 236/286/241 52/222/187
f 236/286/241 217/297/250 52/222/187
f 157/285/240 53/291/246 102/287/242
f 93/46/40 9/62/56 159/293/248
f 52/222/187 108/232/197 180/231/196
f 52/222/187 217/297/250 108/232/197
f 345/292/247 176/302/255 217/297/250
f 62/330/283 204/328/281 295/320/273 224/331/284
f 53/291/246 130/290/245 54/298/251
f 130/290/245 75/407/339 54/298/251
f 130/290/245 253/296/249 75/407/339
f 159/293/248 113/304/257 253/294/249
f 159/293/248 310/299/252 113/304/257
f 217/297/250 177/300/253 108/232/197
f 217/297/250 176/302/255 177/300/253
f 54/298/251 75/407/339 127/301/254
f 253/294/249 113/304/257 75/393/339
f 274/151/133 377/148/130 55/305/258
f 377/148/130 112/307/260 55/305/258
f 26/149/131 56/309/262 112/307/260
f 25/308/261 57/311/264 56/309/262
f 158/147/129 57/311/264 25/308/261
f 145/310/263 179/313/266 57/311/264
f 325/86/77 321/85/76 58/312/265
f 57/311/264 281/316/269 56/309/262
f 58/312/265 59/317/270 179/313/266
f 181/314/267 112/307/260 295/320/273
f 56/309/262 281/316/269 219/315/268
f 179/313/266 59/317/270 281/316/269
f 321/85/76 208/83/74 220/82/73
f 133/306/259 256/318/271 185/322/275
f 256/318/271 181/314/267 366/323/276
f 295/320/273 277/319/272 224/331/284
f 60/321/274 184/324/277 277/319/272
f 59/317/270 203/326/279 281/316/269
f 59/317/270 220/82/73 203/326/279
f 185/322/275 256/318/271 366/323/276
f 224/331/284 277/319/272 258/329/282
f 277/319/272 184/324/277 258/329/282
f 378/325/278 186/332/285 184/324/277
f 220/82/73 231/340/293 203/326/279
f 220/82/73 13/440/374 231/340/293
f 185/322/275 366/323/276 61/327/280
f 366/323/276 295/320/273 204/328/281
f 2/1/1 66/351/304 227/359/312 117/4/4
f 184/324/277 351/333/286 258/329/282
f 378/325/278 203/326/279 186/332/285
f 231/340/293 63/338/291 203/326/279
f 13/440/374 332/80/71 231/340/293
f 61/327/280 204/328/281 379/335/288
f 62/330/283 226/336/289 204/328/281
f 351/333/286 186/332/285 226/336/289
f 231/340/293 369/79/70 63/338/291
f 204/328/281 330/342/295 379/335/288
f 186/332/285 284/337/290 187/343/296
f 203/326/279 64/339/292 284/337/290
f 63/338/291 369/79/70 64/339/292
f 65/341/294 285/352/305 209/334/287
f 330/342/295 138/355/308 65/341/294
f 330/342/295 261/344/297 138/355/308
f 261/344/297 354/346/299 165/353/306
f 284/337/290 368/347/300 187/343/296
f 64/339/292 331/349/302 316/345/298
f 209/334/287 285/352/305 242/234/199
f 65/341/294 206/350/303 285/352/305
f 65/341/294 138/355/308 206/350/303
f 138/355/308 67/354/307 206/350/303
f 261/344/297 165/353/306 138/355/308
f 354/346/299 96/357/310 165/353/306
f 187/343/296 370/356/309 354/346/299
f 368/347/300 316/345/298 370/356/309
f 331/349/302 375/8/8 316/345/298
f 369/79/70 302/81/72 262/348/301
f 242/234/199 84/358/311 229/237/202
f 206/350/303 227/359/312 66/351/304
f 96/357/310 359/7/7 67/354/307
f 316/345/298 190/362/315 370/356/309
f 316/345/298 375/8/8 190/362/315
f 262/348/301 166/360/313 331/349/302
f 262/348/301 302/81/72 298/361/314
f 2/1/1 103/13/13 84/358/311
f 71/386/323 141/370/322 279/369/67 140/466/66
f 67/354/307 359/7/7 117/4/4
f 96/357/310 190/362/315 105/5/5
f 96/357/310 105/5/5 359/7/7
f 370/356/309 190/362/315 96/357/310
f 375/8/8 166/360/313 3/9/9
f 10/68/60 328/67/59 244/365/318
f 10/68/60 244/365/318 310/299/252
f 68/74/65 336/73/64 318/376/326
f 68/74/65 318/376/326 70/366/319
f 318/376/326 336/73/64 356/368/321
f 97/399/343 214/384/333 355/379/328 287/378/327
f 310/299/252 244/365/318 72/303/256
f 318/391/326 356/377/321 355/379/328
f 356/377/321 141/370/322 355/379/328
f 141/370/322 71/386/323 319/380/329
f 71/373/323 343/77/68 156/130/115
f 189/374/324 230/375/325 212/383/332
f 230/375/325 318/376/326 211/382/331
f 318/391/326 355/379/328 74/385/334
f 272/403/347 269/392/338 339/387/335 341/396/341
f 371/381/330 189/374/324 339/387/335
f 339/387/335 212/383/332 341/396/341
f 211/388/331 318/391/326 300/389/336
f 212/383/332 211/382/331 73/394/337
f 287/378/327 319/380/329 194/138/121
f 319/380/329 338/139/122 194/138/121
f 113/304/257 371/381/330 75/393/339
f 371/381/330 339/387/335 269/392/338
f 300/389/336 74/385/334 322/411/354
f 74/385/334 214/384/333 123/401/345
f 74/385/334 123/401/345 322/411/354
f 214/384/333 97/399/343 123/401/345
f 287/378/327 194/138/121 297/402/346
f 182/142/124 237/413/356 125/405/349 106/141/123
f 300/389/336 322/411/354 77/404/348
f 322/411/354 123/401/345 76/406/350
f 123/401/345 104/400/344 76/406/350
f 104/400/344 297/402/346 125/405/349
f 297/402/346 194/138/121 125/405/349
f 75/407/339 269/467/338 196/408/351
f 196/408/351 269/467/338 79/419/362
f 269/467/338 272/468/347 79/419/362
f 272/403/347 374/395/340 169/469/353
f 374/398/340 307/397/342 169/410/353
f 307/397/342 77/404/348 172/409/352
f 77/404/348 322/411/354 267/412/355
f 267/412/355 76/406/350 362/414/357
f 76/406/350 125/405/349 362/414/357
f 201/143/125 160/224/189 82/429/370 83/144/126
f 127/301/254 196/408/351 324/417/360
f 196/408/351 79/419/362 78/416/359
f 79/419/362 272/468/347 129/418/361
f 272/468/347 169/420/353 129/418/361
f 267/412/355 362/414/357 175/415/358
f 175/415/358 237/413/356 291/425/366
f 176/302/255 127/301/254 324/417/360
f 169/410/353 172/409/352 146/422/364
f 175/415/358 291/425/366 292/427/368
f 182/142/124 106/141/123 323/133/118
f 324/417/360 293/233/198 177/300/253
f 176/302/255 324/417/360 177/300/253
f 80/421/363 81/426/367 129/418/361
f 110/424/365 175/415/358 91/428/369
f 91/428/369 292/427/368 82/429/370
f 82/429/370 182/142/124 83/144/126
f 78/416/359 114/430/371 293/233/198
f 80/423/363 301/217/184 81/432/367
f 91/428/369 365/225/190 110/424/365
f 114/430/371 346/460/372 180/231/196
f 81/426/367 346/460/372 114/430/371
f 213/462/230 268/263/226 260/465/195
f 110/424/365 41/226/191 188/227/192
f 110/424/365 365/225/190 41/226/191
f 82/429/370 160/224/189 365/225/190
